<svg xmlns="http://www.w3.org/2000/svg" viewBox="0 0 342.1 398.2"><path d="M332.1 50.4c-7-4-12.4-10-18.1-15.7-3.2-3.1-7-6.3-8.7-10.7-2.2-5.9 1.9-19.4-4.9-22.6-5-2.4-12.8-1-18.3-1h-231c-9.3 0-18.7-.5-27 4.7C5.6 16.9 11.7 37.6 7.4 55.4c-1 4.6-3.7 8.5-5.2 13-2.4 7-2.6 15.7-1.2 23 1 5.5 4.3 10 6 15.2a44 44 0 0 1 1 16.8c-.5 6.6-4 11.8-6 18a46.5 46.5 0 0 0-1.7 16c.4 8.5 4.5 14.3 6.9 22.1a47.6 47.6 0 0 1 .9 16.9c-.8 10.2-7.5 18.3-7.8 29-.3 10.5 4.2 17.3 7 27a49 49 0 0 1 .8 16c-.5 9-6.7 16-7.6 25a47 47 0 0 0 1.5 19c1.8 5.1 5 9.5 5.9 15 2.6 18-4.3 39.4 6.2 55.9 12.7 19.9 44 14 64.1 14h234c5.7 0 15.4 1.7 18.6-4.4 1.8-3.4 1.4-7.8 1.4-11.5v-94c0-8.4-1.5-18.7.7-26.9 1.2-4.2 4.9-6.7 6.7-10.5 1.9-3.9 1.6-8.4 1.6-12.6 0-18.8 2.4-39.4-.4-58-1.3-8.7-7.8-15-8.4-24-2.5-34.7-.2-70.3-.2-105M56 16.4c5.7-2.6 16-1.4 22.2-.9 2.4.3 5.2.7 6.6 3 6 9.8-7.8 24-15.6 27.5-1.6.7-3.2 1.3-5 1.6-12.2 2.5-12-7-12-16.2 0-4.5-1.2-12.5 3.8-15m224.2 99c-18.4-3-38.3-1-57-1h-143c-4.3 0-11.2-1-14.6 2.4-3.6 3.6-2.4 11-2.4 15.6v83c0 4.8-1.3 12.8 2.4 16.6 3.3 3.2 9.5 2.4 13.6 2.4h179c4.8 0 11 .9 15.5-1 7-3 1.5-16.9 9.5-17.7 6.8-.7 5 12.8 5 16.7v57c-15.7.8-30.4 6.9-38.8 21-2.4 4-3.8 8.4-4.7 13-.7 3.7-1.1 8.2-5 10-4 1.7-9.3 1-13.5 1h-89c-10.5 0-21.4.7-31.9-.2-8.9-.8-7.5-8-9.5-14.8A43 43 0 0 0 68 291.9c-4.3-1.4-12-1.4-14.6-5.6-3.8-6.1-1.4-19-1.4-26v-187c0-3.4-.3-7.9 1.9-10.8C56.6 59 62.2 59 66 58a40.7 40.7 0 0 0 29.1-26.7c1.4-4 .9-11.8 5-14.4 3-2 7.5-1.5 11-1.5h158c4.6 0 13.6-1.6 17 2.4 4.3 4.9 2 17.5 2 23.6v65l-.1 18c0 2.4 0 5.6-1.8 7.5-2.4 2.6-6 .7-7.1-2-2-4.6-.4-10 1-14.5m-217-78 11-11c-9-1.2-11 2.6-11 11m0 32v36h217l-2-32v-48h-148c-5.7 0-12.4-1-17.8.7-7.7 2.4-9.8 16-14 22.1A51.2 51.2 0 0 1 63 69.4m256 73-14-11.6-1-25.4v-55c5.9 3 11.8 7.5 14 14 2.6 7.7 1 18 1 26v52m-307 168c-3.5-9.4-2.9-18 4.6-25.4 3.6-3.5 9.1-5.7 10.7-11 1.7-5.6.7-12.7.7-18.6v-35l-10 9-6 9c-4.9-14.7.9-27 16-32l-1-59-13 19h-1c-4.6-9.4-4.3-17.9 3.4-25.6 3.7-3.8 9.3-6.3 11-11.6 1.6-5.8.6-12.9.6-18.8v-35a30.8 30.8 0 0 0-13 18h-3c-4.2-11-2.5-20.6 7.3-28.1 3.5-2.7 13.8-8.4 17.5-3.4 2.8 3.8 1.2 12 1.2 16.5v191c0 5.1 1.2 11.8-.5 16.7-1.8 5.6-12.2 7.2-16.3 11.4-3.8 4-4 10.6-9.2 12.9m292-167c.4 3 1.2 7-1 9.6-4.8 5.8-15.4-.8-18.2 8.6-2 6.4-1 15.1-.7 21.8.2 2.6.4 5.6 2.4 7.6 4.2 4.2 21 .2 17.3 11-1.4 4-6.2 4.2-9.8 4.3-8 .3-20.4 2-26.9-3.7-4.4-4-2.7-9.5-5-14.2-2.9-6-12-7.3-10-15.8 1.2-5.4 7.1-7.1 9.6-11.7 2.9-5.4 1.6-12 7.8-15.4 9-5 24.5-2.1 34.5-2.1m2 40c-2.7 0-5.8.2-8.5-.7-5.5-2-5.9-12.2-1.5-15.4 3.3-2.4 8-1.3 9.3 2.6.5 1.4.6 3 .7 4.5v9m-3 35c16.1 9.3 16 24.6 16 41v111c0 3.6.3 8.6-3 11.1-4.4 3.4-12.8 1.9-18 1.9H53c-5 0-10.8.6-15.7-1.2-9.5-3.4-11.6-16.6-7.1-24.7 4-7.1 11.6-7.1 18.8-7.1h235c5 0 11.9.6 15.8-3.3 2.9-2.7 3-7 3.2-10.7.2-7.7 0-15.4 0-23v-95m-240 26v36a49.4 49.4 0 0 1 36 22c3.8 5.8 5.6 18.2 12.5 21 4.8 2 11.4 1 16.5 1h79c7 0 16 1.4 22.6-.8 4.4-1.5 5.2-6.4 6.6-10.2a51.2 51.2 0 0 1 26.8-29c4-2 10.3-2.6 13.2-6.3 2.2-2.9 1.8-7.3 1.8-10.7v-23H63m-6.5 57.3c10.8-3.8 23.3 7.9 27 16.7 2 4.5 4.2 13-2 15.2-5.8 2-14.3 1-20.4.7-2.5-.2-5.5-.4-7.2-2.4-1.7-2-1.7-5-1.8-7.6-.2-5.6-2.6-20.2 4.4-22.6m226.2-.1c8 1.6 5.5 16.9 5.3 22.8 0 2.3 0 5-1.4 7-1.4 2.2-4.2 2.7-6.6 2.8-5.9.5-13 1-18.8-.3-8-1.8-6.2-10.8-3.6-16.5 3.8-8.7 14.8-18 25.1-15.8M63.1 312.4c.2 8.3 2 12.3 11 11a18 18 0 0 0-11-11m204 12c8.6-.3 11.4-3.4 10-12-5 3-8.1 6.3-10 12m37 47c-3.6-9.6-11-9-20-9h-229c-3.8 0-12.1-1.2-14.4 3-3.4 6.2 9.6 6 12.4 6h49z"/></svg>