<?xml version="1.0" encoding="UTF-8" standalone="no"?>
<!-- Created with Inkscape (http://www.inkscape.org/) -->

<svg
   version="1.1"
   id="svg1"
   width="342.08594"
   height="398.16064"
   viewBox="0 0 342.08594 398.16064"
   xmlns="http://www.w3.org/2000/svg"
   xmlns:svg="http://www.w3.org/2000/svg">
  <defs
     id="defs1" />
  <g
     id="g1"
     transform="translate(-29.172477,0.37855597)">
    <path
       style="fill:#000000;fill-opacity:1;stroke:none"
       d="m 361.30416,50.000001 c -7.07751,-4.04129 -12.45941,-9.91348 -18.17822,-15.63074 -3.18634,-3.18545 -7.02179,-6.37021 -8.65155,-10.69983 -2.22165,-5.90201 1.88232,-19.4794896 -4.89701,-22.6458396 C 324.51574,-1.3405186 316.7514,1.4307952e-6 311.30416,1.4307952e-6 h -42 -149 -39.999988 C 70.979152,3.614308e-4 61.557592,-0.52166857 53.337622,4.6811814 34.690752,16.483761 40.805712,37.171601 36.505602,55.000001 c -1.10393,4.5769 -3.77244,8.55639 -5.2569,13 -2.36855,7.09006 -2.61919,15.67355 -1.21564,22.99682 1.0642,5.55268 4.34194,9.962869 6.07655,15.230539 1.70399,5.17462 1.45603,11.39999 1.01143,16.77264 -0.54718,6.61221 -4.13496,11.8273 -6.10158,18 -1.63939,5.14557 -1.8338,10.64081 -1.61791,15.99998 0.34468,8.55643 4.45106,14.32355 6.84014,22.16796 1.58492,5.20401 1.32464,11.4563 0.91111,16.83206 -0.78709,10.23195 -7.5144,18.3548 -7.78165,29 -0.26528,10.56667 4.18607,17.2962 6.9534,27 1.4306,5.01645 1.17924,10.82458 0.85806,15.98859 -0.55751,8.96399 -6.70631,15.99572 -7.58687,25.01172 -0.6081,6.22625 -0.55341,13.03784 1.51389,18.99969 1.77725,5.1254 5.04724,9.53207 5.83973,15 2.62341,18.10065 -4.2941,39.45801 6.24024,55.90439 C 55.921642,402.78183 87.263062,397 107.30416,397 h 181 l 53,-6e-5 c 5.67966,-8.6e-4 15.38824,1.58948 18.6019,-4.49939 1.78424,-3.38059 1.38318,-7.80631 1.39538,-11.50073 L 361.30444,361 v -74 c 0,-8.42529 -1.5455,-18.65729 0.70404,-26.83145 1.1669,-4.24014 4.84595,-6.69782 6.69116,-10.53749 1.86075,-3.87203 1.58924,-8.44722 1.60221,-12.63112 0.0582,-18.78594 2.36206,-39.41388 -0.39667,-57.99994 -1.28485,-8.65627 -7.79996,-15.05966 -8.44126,-24 -2.48443,-34.63501 -0.15948,-70.270139 -0.15948,-104.999999 M 85.030972,16.101291 c 5.71854,-2.71891 16.023468,-1.48536 22.196088,-0.94263 2.44075,0.2146 5.25426,0.65613 6.63887,2.94263 5.91754,9.77209 -7.75511,23.98349 -15.565628,27.51831 -1.59813,0.72326 -3.2705,1.28524 -4.99029,1.63559 -12.23545,2.49258 -12.00921,-6.99356 -12.00517,-16.25498 0.002,-4.49023 -1.27323,-12.52197 3.72613,-14.89892 M 309.30416,115 c -18.40518,-3.02347 -38.37634,-1 -57,-1 h -104 l -38.99994,4.9e-4 c -4.36372,0.003 -11.191538,-1.01276 -14.601938,2.39761 -3.58189,3.58188 -2.39629,11.02338 -2.39793,15.6019 l -1.8e-4,39 6e-5,44 c 7.3e-4,4.78726 -1.348,12.85585 2.39805,16.6019 3.23087,3.23088 9.459878,2.39003 13.602058,2.39693 l 34.99982,0.001 h 112 l 32,-2e-5 c 4.80411,-2.7e-4 10.97971,0.91944 15.50055,-1.02359 7.03998,-3.02572 1.48822,-16.85473 9.49945,-17.68066 6.80042,-0.70109 4.99936,12.86929 4.99994,16.70429 l 6e-5,56.99998 c -15.71973,0.85709 -30.4476,6.91153 -38.81119,21.00186 -2.39398,4.03317 -3.81332,8.40796 -4.72268,12.98606 -0.74137,3.73229 -1.1142,8.24584 -5.07279,9.98846 -3.93884,1.73395 -9.20035,1.02194 -13.3934,1.02344 l -26.99994,1.8e-4 h -62 c -10.54276,0 -21.41797,0.76489 -31.92294,-0.15866 -8.91243,-0.78354 -7.46028,-8.06607 -9.55837,-14.84219 -1.77472,-5.73179 -5.0323,-11.00049 -8.99027,-15.48011 -4.9905,-5.64828 -11.34571,-9.74865 -18.528348,-12.01452 -4.29375,-1.35456 -11.95595,-1.37363 -14.60195,-5.5842 -3.83967,-6.11008 -1.39811,-18.9426 -1.39811,-25.92032 v -67 -94.999999 c 0,-8.33222 -0.0461,-16.66596 0.006,-24.99799 0.0217,-3.47674 -0.37903,-7.96606 1.84976,-10.91229 2.65396,-3.50824 8.25403,-3.4426 12.14551,-4.4339 5.580188,-1.42151 11.039838,-3.95157 15.612528,-7.46896 6.22769,-4.79044 11.05254,-11.7395 13.51753,-19.18656 1.38066,-4.17114 0.80408,-11.90756 4.89073,-14.51916 3.03616,-1.94028 7.54814,-1.461 10.97921,-1.47678 l 22.99882,-0.004 h 88 47 c 4.65048,2.7e-4 13.71042,-1.59238 17.14435,2.3981 4.21042,4.89285 1.85565,17.56369 1.85565,23.6019 v 64.999999 c 0,5.9855 0.14859,11.99359 -0.0435,17.97644 -0.0785,2.44486 -0.0322,5.60696 -1.78857,7.5484 -2.3902,2.64203 -5.97434,0.74191 -7.14325,-2.03592 -1.91216,-4.54403 -0.38665,-10.03399 0.97532,-14.48892 M 92.304272,37.000191 l 10.999988,-11 c -8.934378,-1.19995 -10.841828,2.63553 -10.999988,11 m 0,32 V 105.00019 H 309.30426 l -2,-31.999999 v -48 h -114 -34 c -5.61296,0 -12.30547,-0.93302 -17.73378,0.72677 -7.72551,2.36219 -9.7701,15.97394 -14.00326,22.1168 -8.17798,11.8673 -21.13399,19.11328 -35.262948,21.15643 m 255.999988,72.999999 -13.97961,-11.5686 -1.02039,-25.4314 V 50.000191 c 5.86996,2.98877 11.7597,7.51187 13.97647,14.00116 2.64011,7.72851 1.02353,17.92538 1.02353,25.99884 v 51.999999 m -306.999988,168 c -3.49797,-9.40936 -2.93431,-17.92761 4.57885,-25.33105 3.60953,-3.5568 9.11712,-5.78373 10.69447,-10.96497 1.73865,-5.711 0.72668,-12.79797 0.72668,-18.70398 v -35 l -10.00077,9.00076 -5.99923,8.99924 c -4.92428,-14.67928 0.87227,-27.06026 16,-32 l -1,-59 -13,19 h -1 c -4.6138,-9.34343 -4.31596,-17.86317 3.34711,-25.61758 3.70194,-3.74607 9.32996,-6.21732 10.9261,-11.59501 1.71155,-5.76654 0.72679,-12.83374 0.72679,-18.78741 V 75.000191 c -6.92759,4.65054 -10.54074,10.10785 -13,18 h -3 c -4.2236,-11.03937 -2.52685,-20.55139 7.23671,-28.11337 3.4921,-2.70466 13.79048,-8.40998 17.50352,-3.34467 2.78857,3.80414 1.25977,11.98843 1.25977,16.45804 v 42.999999 114 34 c 0,5.1225 1.13377,11.85779 -0.50146,16.76382 -1.85677,5.57074 -12.2131,7.14853 -16.29989,11.39444 -3.81758,3.96622 -4.11159,10.54453 -9.19865,12.84174 m 291.999988,-167 c 0.37891,3.03476 1.20044,7.02011 -0.97437,9.61113 -4.83895,5.76501 -15.47357,-0.74016 -18.29885,8.60097 -1.93735,6.4053 -1.01383,15.1381 -0.62976,21.7644 0.15258,2.63277 0.41766,5.64761 2.38412,7.62541 4.15466,4.17864 20.95691,0.25432 17.25891,10.94219 -1.40051,4.04768 -6.14505,4.29687 -9.75738,4.41235 -7.94587,0.25401 -20.43757,1.97019 -26.87986,-3.74878 -4.39477,-3.90133 -2.77169,-9.45776 -5.02786,-14.22041 -2.86154,-6.04057 -12.08493,-7.29852 -10.08926,-15.7952 1.27224,-5.41668 7.20816,-7.10565 9.67944,-11.71226 2.89816,-5.40235 1.57767,-12.01514 7.7681,-15.40764 9.03579,-4.95186 24.54147,-2.07216 34.56677,-2.07216 m 2,40 c -2.77316,-0.0287 -5.86768,0.19957 -8.53088,-0.72679 -5.51941,-1.91985 -5.86725,-12.12001 -1.45752,-15.39407 3.22815,-2.39679 7.95559,-1.2172 9.26178,2.62048 0.49017,1.4402 0.57095,3.00792 0.64956,4.51358 0.15601,2.98746 0.0764,5.99637 0.0771,8.9868 m -3,35 c 16.09085,9.31859 16,24.57587 16,41 v 82 c 0,9.66409 0.0965,19.3338 -0.012,28.99728 -0.0412,3.6662 0.26699,8.65888 -3.01154,11.14707 -4.38797,3.33008 -12.81705,1.85553 -17.9765,1.85565 h -45 -174 l -25.999988,-1.2e-4 c -5.10611,-10e-4 -10.86366,0.58807 -15.75268,-1.17212 -9.43785,-3.39789 -11.61818,-16.61884 -7.08499,-24.6691 4.03021,-7.15707 11.57439,-7.13898 18.83769,-7.15665 l 44.999968,-0.002 h 152 c 12.66638,0 25.33362,0.0383 37.99997,-0.003 5.05859,-0.0166 11.86987,0.6297 15.8157,-3.2268 2.85407,-2.78946 3.04734,-7.03199 3.14698,-10.77243 0.20395,-7.65725 0.0374,-15.33841 0.0374,-22.99777 v -95 m -239.999988,26 v 36 c 14.827918,1.69702 27.586078,9.58267 35.879958,22.00702 3.86643,5.79193 5.69895,18.16473 12.54497,20.96936 4.87779,1.99829 11.41573,1.0235 16.57506,1.02362 h 32 47 c 6.92943,0 15.90248,1.46783 22.53592,-0.79626 4.436,-1.5141 5.18561,-6.33896 6.63232,-10.22107 2.02701,-5.43921 4.94275,-10.46045 8.65927,-14.92221 4.92783,-5.91593 11.18305,-10.8425 18.17203,-14.0972 3.99396,-1.85993 10.31162,-2.57386 13.14481,-6.21527 2.2409,-2.88016 1.82837,-7.3259 1.84976,-10.75065 0.0479,-7.66525 0.006,-15.33195 0.006,-22.99734 H 92.304432 m -6.50053,57.29156 c 10.7469,-3.77252 23.218608,7.88105 27.060598,16.70911 1.96124,4.50647 4.15596,13.02457 -2.06029,15.20307 -5.84925,2.04986 -14.343368,1.05807 -20.456218,0.69924 -2.48269,-0.14572 -5.43905,-0.36322 -7.18791,-2.38412 -1.73641,-2.00656 -1.73147,-5.0531 -1.81209,-7.551 -0.18383,-5.69577 -2.53722,-20.22143 4.45591,-22.6763 m 226.169008,-0.0791 c 7.97943,1.64435 5.47696,16.88251 5.28796,22.76404 -0.074,2.30216 -0.072,4.98303 -1.35455,6.99988 -1.45053,2.28101 -4.19357,2.6972 -6.67896,2.89313 -5.83416,0.45984 -13.02093,0.93316 -18.75216,-0.36896 -7.93656,-1.80322 -6.16419,-10.78922 -3.64157,-16.46057 3.88421,-8.73261 14.87786,-17.94211 25.13928,-15.82752 M 92.304432,312.0002 c 0.15689,8.2977 2.06203,12.33981 10.999988,11 -2.31581,-5.54715 -5.382978,-8.78632 -10.999988,-11 m 203.999988,12 c 8.61264,-0.2851 11.40613,-3.34906 10,-12 -5.10843,3.08072 -8.13248,6.28757 -10,12 m 37,47 c -3.61353,-9.54459 -10.98508,-8.99661 -20.00003,-8.99982 l -29.99997,-1.8e-4 h -156 l -42.999808,8.9e-4 c -3.83903,0.005 -12.12889,-1.20844 -14.38997,2.94174 -3.44766,6.32815 9.52929,6.03985 12.39097,6.05304 16.33223,0.075 32.666398,0.004 48.998808,0.004 z"
       id="path1" />
  </g>
</svg>
