<svg xmlns="http://www.w3.org/2000/svg" xml:space="preserve" width="872.86" height="872.95" viewBox="0 0 230.94 230.97"><path d="M146.05 43.51c-15.19 1.38-30.24 1.4-45.24 4.73-8.65 1.92-16.6 4.37-23.55 10.08-5.53 4.55-10.77 10.03-14.31 16.3-2.74 4.84-4.25 10.27-7.04 15.07-3.02 5.22-7.9 9.3-8.7 15.61-.74 5.9 5.05 9.16 4.24 15.09-.97 7.1-7.9 11.32-7.73 18.78.12 5.7 5.98 9.05 6.11 14.82.07 2.77-.55 5.3-1.98 7.67-1.84 3.06-4.73 6.23-4.34 10.05.61 5.92 6.23 9.78 7.12 15.61 1.04 6.91-5.09 10.82-4.54 17.47.53 6.3 5.85 9.93 8.3 15.34 2.31 5.1 2.57 10.92 4.58 16.14 3.17 8.28 9.5 15.29 16.17 20.96 11.96 10.17 25.66 12.39 40.75 14.25a352.92 352.92 0 0 0 76.73.95c12.45-1.21 24.87-2.98 36.77-6.97 5.8-1.94 11.92-4.3 16.4-8.58 5.7-5.4 8.84-12.74 11.3-20.08 3.58-10.71 5.64-21.86 6.9-33.07.42-3.69.26-7.45.73-11.11.28-2.2.88-4.36 2.36-6.07 1.73-2 4.36-3.32 5.43-5.84.94-2.18.7-4.82.86-7.14.27-3.97.81-7.93.98-11.91.17-4.16.18-9.43-1.72-13.23-2.04-4.08-5.94-6.66-6.77-11.38-2.03-11.52-2.26-23.33-3.8-34.92-.6-4.48-.8-10.75-3.04-14.75-1.37-2.43-5-4.2-7.14-5.93-4.76-3.85-10-8.11-13.8-12.92-3.8-4.8-3.41-11.96-8.43-15.96-5.56-4.44-15.4-4.92-22.22-6.02-11.49-1.86-23.06-2.43-34.66-2.92-8.76-.36-17.97-.91-26.72-.12m80.17 72.11c-30.47-3.58-60.61-2.53-91.28-2.12-9.53.13-19.07.11-28.58.75-3.77.25-8.04-.35-11.64 1.04-4.9 1.9-3.7 7.3-4.06 11.45-.65 7.52-.44 15.2-.44 22.75 0 2.53-.15 5.06-.22 7.58-.07 3.12.06 8.18-.08 11.3-.12 2.74.1 5.44 2.2 7.1 2.73 2.17 7.3 1.54 10.54 1.54 7.85 0 15.69.26 23.55.26h58.47c11.6 0 23.35.38 34.92-.3 2.38-.14 4.9-.65 6.18-2.88 1.44-2.53 1.07-7.49 5.45-6.7 2.33.41 2.65 3.16 2.64 5.12-.05 5.66-.14 11.56-.65 17.2-.33 3.6-.2 7.24-.53 10.84-.1 1.17.19 3-.55 4-.6.8-1.85.8-2.75.93-2.14.34-4.25.93-6.35 1.5a31.1 31.1 0 0 0-14.25 8.4 23.39 23.39 0 0 0-5.23 8.72c-.9 2.7-1.23 6.07-4.08 7.46-4.67 2.29-11.58 1.03-16.65 1.3-14.9.82-29.8.24-44.72.24-4.82 0-9.75.02-14.55-.44-2.1-.2-4.43-.22-6.32-1.24-3.06-1.65-3.2-6.03-4.45-8.9-1.72-3.98-4.67-7.36-8.02-10.05a28.81 28.81 0 0 0-10.58-5.44c-3.53-.92-8.43-1.28-10.29-4.9-1.76-3.41-.9-7.45-.83-11.1.1-5.54-.52-11.12-.52-16.67 0-20.67-.16-41.3 1.27-61.91.37-5.39.76-10.77 1.35-16.14.28-2.57.22-5.6 1.48-7.92 1.91-3.55 6.73-4.04 10.19-5.2a30.78 30.78 0 0 0 11.84-7.49 28.92 28.92 0 0 0 6.78-10.61c1.05-3.05 1.3-7.47 4.44-9.24 2.01-1.13 4.6-.97 6.84-1.15a241.1 241.1 0 0 1 16.13-.73c18.98-.26 37.98-.55 56.89 1.48 4.95.53 9.87 1.27 14.82 1.84 2.98.34 6.25.44 8.72 2.4 4.2 3.36 4.29 9.78 4.93 14.66 1.5 11.48 2.9 22.86 3.95 34.4.34 3.68.66 7.4.65 11.1 0 1.42.2 3.23-.95 4.29-1.32 1.2-3.32.82-4.44-.3-.6-.6-.91-2.04-1.01-2.9-.2-1.79-.2-3.76-.2-5.32m-123.3-58.64c1.74-.16 4.68-.6 6.25.34 3.18 1.89.6 7.4-.74 9.62-3.3 5.4-9.5 11-16.1 11.32-6.23.3-3.34-8.87-2.52-12.38 1.54-6.57 6.98-8.34 13.1-8.9m-11.37 53.09c12.94 0 25.95-1.18 38.89-1.58 20.02-.6 40.05-.17 60.06.25 11.98.24 23.83-.23 35.72 1.33-.2-5.65-1-11.1-1.87-16.67-.87-5.6-1.32-11.3-2.05-16.94-.36-2.83-.8-5.65-1.32-8.46-.2-1.04-.25-2.57-1.12-3.3-2.06-1.72-7.7-1.47-10.31-1.76a354.95 354.95 0 0 0-28.05-2.1c-13.25-.4-26.43-.25-39.68-.25-4.7 0-12.85-1.01-16.93 1.58-3.69 2.34-5.12 7.15-6.98 10.85a27.74 27.74 0 0 1-7.05 8.65A39.66 39.66 0 0 1 100 88.24c-1.84.74-5.18 1.03-6.54 2.53-1.07 1.18-.86 3.78-1.01 5.27-.46 4.64-.91 9.37-.91 14.03m3.96-38.63c2.65-1.97 5.6-4.64 7.41-7.41-4.5.2-6.66 3.21-7.4 7.4m144.46 10.6c3.96 2.67 8.25 5.24 10.7 9.52 2.45 4.27 2.37 9.27 2.85 14.02.87 8.5 2.05 17.1 2.06 25.66-2.98-1.53-8.37-3.81-10.2-6.68-1.69-2.62-1.34-7.73-1.72-10.78-.88-6.96-1.37-13.95-2.33-20.9-.47-3.32-1.97-7.54-1.36-10.85m-174.9 87.31-7.14 4.1-5.02 3.84c-2.13-6-.43-10.2 5.55-12.92 1.69-.77 5.66-1.15 6.4-3.05.89-2.3-.05-5.69-.05-8.1v-19.32c-2.45 1.97-4.54 4.36-6.88 6.47-.9.81-1.94 2.11-3.15 2.43-1.17.3-1.94-.87-2.4-1.76-1.14-2.3-.69-4.82.82-6.84 3.35-4.47 10.51-5.49 12.64-10.88 1.06-2.69.67-5.66.92-8.47.52-5.91 1.04-11.87 2.02-17.73a28.77 28.77 0 0 0-7.41 6.1c-1.13 1.29-2.09 3.4-3.58 4.29-3.5 2.08-2.95-4.58-2.34-6.15 2.17-5.55 8.27-9.26 13.33-11.83 1.81-.92 4.81-2.53 6.76-1.1 2.05 1.52.92 5.07.5 7.1-1.29 6.3-1.54 12.93-2.02 19.32-1.56 20.84-1.27 41.57-1.27 62.44 0 5.24.15 10.65.63 15.88.24 2.73 1.26 6.04.34 8.72-1.26 3.65-6.97 3.37-9.96 4.58-2.68 1.08-3.54 4.24-6.1 5.26-3.18 1.26-4-5.27-3.5-7.19 1.44-5.44 9.02-4.5 11.36-9 1.39-2.68.38-6.41.16-9.25-.45-5.63-.3-11.3-.6-16.94m160.07-39.32c5.35-.6 11.61.01 16.93.75 2.37.32 4.06 2.55 2.15 4.75-3.32 3.82-10.56-.93-12.89 4.72-1.47 3.57-1.49 12.84 2.55 14.72 3.03 1.41 7.9.17 10.43 2.48 2.08 1.9-.37 4.04-2.24 4.59-2.22.65-4.6.4-6.88.44-4.88.1-12.07 1.37-16.06-2.28-2.14-1.96-1.7-5.05-3.43-7.23-1.71-2.16-5.19-3.1-6.1-5.86-1.15-3.46 3.17-5.35 5.15-7.27 1.93-1.89 1.96-4.55 3.43-6.67 1.5-2.17 4.48-2.86 6.96-3.14m21.43 21.07c-1.5 0-3 .02-4.5-.2a7.3 7.3 0 0 1-2.63-.78c-7.37-4.25 5.33-12.62 6.91-4.05.3 1.65.22 3.36.22 5.03m-2.38 17.46c8.67 1.43 11.38 9.35 11.38 16.93 0 16.39-2.47 33.25-6.03 49.22-1.32 5.9-2.72 14.37-7.74 18.3-3.4 2.66-7.54 3.46-11.63 4.48a199.65 199.65 0 0 1-23.55 4.29 388.58 388.58 0 0 1-95.51.03c-10.1-1.27-24.6-1.66-32.28-9.14-2.86-2.8-7.26-8.64-4.73-12.87 2.63-4.4 10.9-1.57 14.78-1.01 14.6 2.1 29.23 2.82 43.92 3.8 9.12.6 18.38.32 27.52.32 16.85 0 33.75-.34 50.53-2.03 5.22-.52 10.42-1.13 15.61-1.82 4.17-.56 8.38-1.2 11.25-4.63 3.65-4.36 3.4-12.84 3.98-18.25a445.8 445.8 0 0 0 2.5-47.62m-153.72 13.5c0 4.33.18 8.63.27 12.96.03 1.36-.2 4.15.69 5.26 1.19 1.5 5.2 1.6 6.97 2.2a35.66 35.66 0 0 1 12.18 6.95 25.51 25.51 0 0 1 6.03 7.55c1.57 3.06 2.9 7.14 6.14 8.83 5.04 2.62 12.76 1.15 18.25 1.23 12 .16 24 .02 35.99 0 5.15-.02 12.11 1.2 16.93-.95 2.89-1.3 3.62-4.69 4.94-7.26a31.6 31.6 0 0 1 6.99-9 35.74 35.74 0 0 1 10.82-6.7c2.82-1.1 6.57-1.5 8.44-4.18 1.26-1.8 1.06-4.22 1.1-6.31.04-3.53.25-7.05.25-10.59l-96.57.8-39.42-.8m-3.43 29.92c6.6-2.29 14.78 4.17 18.05 9.24 1.58 2.45 4.03 7.9.17 9.55-3.98 1.7-10.23.09-14.26-.84-1.75-.4-3.42-1.08-4.43-2.64-.72-1.1-.92-2.42-1.15-3.69-.58-3.16-2.7-10.13 1.62-11.62m138.1.09c1.72-.2 4.01-.4 5.34.94 2.7 2.69 1.08 11.66-.8 14.51-2.15 3.25-8.2 3.34-11.68 3.66-2.1.2-5.26.43-7-1-2.67-2.17-.74-6.63.65-8.96 2.74-4.57 8.11-8.54 13.49-9.15m-132.82 5.98c.22 4.76 3.03 6.42 7.4 6.88-1.38-3.35-4.18-5.44-7.4-6.88m124.88 7.14c4.42-.4 6.86-2.32 6.88-6.88a13.4 13.4 0 0 0-6.88 6.88m19.32 23.81c-1.34-4.08-4.98-3.6-8.47-3.1-8.02 1.16-16 2.2-24.08 2.98a479.78 479.78 0 0 1-90.75 0c-7.68-.73-15.43-1.42-23.02-2.87-1.88-.36-6.37-2.04-7.87-.2-.8.96-.01 2.17.81 2.8 1.9 1.43 4.52 2.02 6.8 2.5 9.98 2.13 20.27 3.09 30.43 3.9a470.39 470.39 0 0 0 77.78-.12c12.63-1.09 26.26-1.88 38.37-5.89z" style="display:inline;fill:#030303;stroke:none" transform="translate(-43.48 -43.1)"/></svg>